<svg width="180" height="254" viewBox="0 0 180 254" fill="none" xmlns="http://www.w3.org/2000/svg">
<path d="M63.5548 194.34C64.3048 194.34 64.9348 194.37 65.4448 194.43V194.88C63.5848 194.97 61.9798 195.42 60.6298 196.23C59.0998 197.16 58.0048 198.03 57.3448 198.84C56.7148 199.62 56.2048 200.265 55.8148 200.775C55.4548 201.255 55.0948 201.84 54.7348 202.53C54.1648 203.58 53.6398 204.615 53.1598 205.635L41.0998 232.005C39.7198 234.975 38.9848 236.94 38.8948 237.9H38.4898L24.8548 208.515C24.4048 207.675 23.8348 207.045 23.1448 206.625C22.4548 206.175 21.7498 205.95 21.0298 205.95H20.6698V205.5H34.9798V205.95H34.6198C33.9598 205.95 33.4648 206.16 33.1348 206.58C32.8348 206.97 32.6848 207.345 32.6848 207.705C32.6848 208.065 32.7448 208.425 32.8648 208.785L40.5148 227.37L49.8298 205.635C51.2398 202.305 52.8898 199.8 54.7798 198.12C57.5698 195.6 60.4948 194.34 63.5548 194.34ZM90.9935 205.95C90.2435 205.95 89.5985 206.22 89.0585 206.76C88.5185 207.27 88.2335 207.9 88.2035 208.65V231.87C88.2035 233.88 88.3385 235.575 88.6085 236.955L88.7435 237.63H88.3385L65.6135 215.985V233.85C65.6135 234.6 65.8835 235.245 66.4235 235.785C66.9635 236.295 67.6085 236.55 68.3585 236.55H69.2135V237H55.5785V236.55H56.3885C57.1685 236.55 57.8285 236.295 58.3685 235.785C58.9085 235.245 59.1785 234.585 59.1785 233.805V210.45C59.1785 208.47 59.0435 206.82 58.7735 205.5L58.6835 204.825H59.0885L81.8135 226.47V208.695C81.7835 207.915 81.4985 207.27 80.9585 206.76C80.4185 206.22 79.7735 205.95 79.0235 205.95H78.2135V205.5H91.8485V205.95H90.9935ZM128.714 205.95H127.949C127.319 205.95 126.764 206.16 126.284 206.58C125.834 206.97 125.609 207.465 125.609 208.065V225.615C125.609 229.305 124.454 232.23 122.144 234.39C119.834 236.55 116.669 237.63 112.649 237.63C107.909 237.63 104.279 236.58 101.759 234.48C99.2391 232.35 97.9791 229.41 97.9791 225.66V208.2C97.9791 207.54 97.7391 207 97.2591 206.58C96.8091 206.16 96.2541 205.95 95.5941 205.95H94.8741V205.5H107.834V205.95H107.114C106.454 205.95 105.899 206.16 105.449 206.58C104.999 206.97 104.759 207.48 104.729 208.11V225.3C104.729 228.48 105.509 231 107.069 232.86C108.629 234.72 110.774 235.65 113.504 235.65C116.234 235.65 118.394 234.78 119.984 233.04C121.574 231.27 122.384 228.885 122.414 225.885V208.11C122.414 207.48 122.174 206.97 121.694 206.58C121.244 206.16 120.689 205.95 120.029 205.95H119.309V205.5H128.714V205.95ZM132.202 236.55C132.982 236.55 133.642 236.28 134.182 235.74C134.752 235.17 135.052 234.495 135.082 233.715V208.65C134.992 207.6 134.497 206.82 133.597 206.31C133.147 206.07 132.682 205.95 132.202 205.95H131.617V205.5H148.852C149.782 205.5 150.802 205.41 151.912 205.23C153.022 205.05 153.802 204.87 154.252 204.69V212.565H153.802V212.025C153.802 210.675 153.397 209.595 152.587 208.785C151.807 207.945 150.742 207.495 149.392 207.435H141.832V220.53H147.772C148.882 220.5 149.797 220.125 150.517 219.405C151.237 218.655 151.597 217.74 151.597 216.66V216.255H152.047V226.65H151.597V226.29C151.597 224.79 150.997 223.68 149.797 222.96C149.197 222.63 148.537 222.45 147.817 222.42H141.832V235.065H147.727C149.917 235.065 151.747 234.435 153.217 233.175C154.717 231.915 155.827 230.13 156.547 227.82H156.997L154.927 237H131.617V236.55H132.202Z" fill="white"/>
<path d="M104.487 45.2393C105.237 44.9103 106.102 45.3851 106.419 46.2997C106.736 47.2143 106.385 48.2225 105.635 48.5514L9.50859 90.7221C8.75875 91.051 7.89397 90.5763 7.57707 89.6616C7.26017 88.747 7.61114 87.7389 8.36098 87.4099L104.487 45.2393Z" fill="#F6F6F6"/>
<path d="M171.479 48.3636C172.315 48.7356 172.727 49.7914 172.4 50.7219C172.073 51.6523 171.13 52.1049 170.295 51.7329L63.1502 4.04292C62.3144 3.67091 61.902 2.61508 62.2291 1.68467C62.5561 0.754249 63.4988 0.301573 64.3346 0.673586L171.479 48.3636Z" fill="#F6F6F6"/>
<rect x="7" y="88.0868" width="3.16901" height="102.698" fill="#F6F6F6"/>
<rect width="3.17717" height="189.792" transform="matrix(0.987725 -0.156201 0.123936 0.99229 62.1436 1.80152)" fill="#F6F6F6"/>
<rect width="3.17717" height="145.003" rx="1" transform="matrix(0.987725 0.156201 -0.123936 0.99229 103.563 46.2804)" fill="#F6F6F6"/>
<path d="M169.254 49.5752H172.423V190.071H169.254V49.5752Z" fill="#F6F6F6"/>
</svg>
